Coordinates
version=1
nRows=16
nColumns=36
inDegrees=yes

Units are S.I. units (second, meters, Newtons, ...)
If the header above contains a line with 'inDegrees', this indicates whether rotational values are in degrees (yes) or radians (no).

endheader
time	pelvis_tilt	pelvis_list	pelvis_rotation	pelvis_tx	pelvis_ty	pelvis_tz	hip_flexion_r	hip_adduction_r	hip_rotation_r	knee_angle_r	knee_angle_r_beta	ankle_angle_r	subtalar_angle_r	mtp_angle_r	hip_flexion_l	hip_adduction_l	hip_rotation_l	knee_angle_l	knee_angle_l_beta	ankle_angle_l	subtalar_angle_l	mtp_angle_l	lumbar_extension	lumbar_bending	lumbar_rotation	arm_flex_r	arm_add_r	arm_rot_r	elbow_flex_r	pro_sup_r	arm_flex_l	arm_add_l	arm_rot_l	elbow_flex_l	pro_sup_l
      1.98000000	    -19.79569677	      1.29885618	      2.23154949	     -0.28737105	      0.71949033	     -0.56302997	     68.02081808	     -4.77004532	      4.44115414	     87.21264018	      1.52214772	     25.61961097	    -24.40557399	     -7.37177098	     67.64417596	    -10.30954805	      5.43802360	     82.59290559	      1.44151814	     23.58169091	     -9.02173757	     -7.37177098	    -11.95783622	      2.42958779	     -4.94745931	     77.52633460	    -34.46197036	     20.93051151	     89.74096716	    102.34191521	     80.60525332	    -32.43970838	     19.14531631	     61.48550196	     98.38534707
      1.99000000	    -19.43135271	      1.49292197	      1.99545190	     -0.28180189	      0.73102170	     -0.56119155	     66.18431506	     -4.23773656	      4.78157150	     85.29351222	      1.48865262	     23.90403192	    -25.52003360	     -7.37922578	     65.28811437	    -10.22723470	      5.04889381	     80.17550916	      1.39932661	     22.73419846	    -10.09587986	     -7.37922578	    -10.92821478	      2.21243855	     -4.33812143	     85.77510694	    -36.07416474	     25.95349334	     91.53088797	    102.40273003	     86.86298884	    -34.16191691	     25.01089022	     62.53041516	     97.74333536
      2.00000000	    -19.24351762	      1.71772273	      1.82441399	     -0.27575782	      0.74344892	     -0.55992036	     64.32925986	     -3.93900636	      5.08290479	     83.00890291	      1.44877866	     22.63297964	    -26.03888038	     -7.38339768	     62.93364556	     -9.99529055	      4.57304845	     77.49017288	      1.35245865	     22.05755309	    -11.10573047	     -7.38339768	     -9.69048024	      2.10930473	     -3.74628792	     94.73941935	    -37.30187451	     32.09696710	     93.03765110	    102.54834412	     93.06817251	    -35.41965627	     30.26674581	     63.17026246	     97.42918016
      2.01000000	    -19.06597667	      2.10565225	      1.77993055	     -0.26941463	      0.75691103	     -0.55879979	     62.41689848	     -3.95174627	      5.38591577	     80.55023363	      1.40586679	     20.48853341	    -27.14946312	     -7.42620543	     60.37060494	     -9.49470041	      4.04489008	     74.37554235	      1.29809810	     20.78092360	    -12.33539612	     -7.42620543	     -8.48610427	      1.78937643	     -3.30864636	    103.60616292	    -37.66745945	     37.74977795	     94.10232749	     99.98234090	     99.83107289	    -36.44075489	     36.70085965	     64.01199419	     90.21464792
      2.02000000	    -18.73446968	      2.46118747	      1.74234570	     -0.26275578	      0.77170321	     -0.55755891	     60.18895082	     -4.05499213	      5.56844118	     77.83883316	      1.35854392	     18.97074921	    -27.10719457	     -7.42794996	     57.50093791	     -9.03296508	      3.59164926	     70.92544803	      1.23788259	     19.49934356	    -12.88701275	     -7.42794996	     -7.57144825	      1.59106627	     -2.93164025	    112.53768363	    -36.97692626	     42.98612323	     94.12281909	    100.17326126	    106.22170596	    -36.91671352	     40.91428089	     64.02832445	     90.41223366
      2.03000000	    -18.84055825	      2.63100512	      1.78488312	     -0.25588301	      0.78693420	     -0.55586036	     58.26310892	     -4.08982729	      5.46482151	     74.72706281	      1.30423329	     16.32480082	    -28.25405747	     -7.42838671	     55.08549591	     -8.75985657	      3.19350859	     67.11726937	      1.17141734	     17.29140451	    -14.00323046	     -7.42838671	     -6.11206033	      1.38694857	     -2.32498905	    120.52505848	    -36.14983515	     47.24201617	     94.02510366	    101.12928024	    113.29534009	    -36.69843362	     47.26244815	     62.28570012	     91.41933810
      2.04000000	    -18.68195653	      2.93062238	      1.80457162	     -0.24868412	      0.80365467	     -0.55398263	     55.93858461	     -4.29234417	      5.39705321	     71.38301411	      1.24586863	     13.91414105	    -28.59046438	     -7.42750933	     52.22090865	     -8.48864540	      2.58819523	     62.96810112	      1.09900069	     14.98661846	    -14.35754999	     -7.42750933	     -5.05556967	      0.99648533	     -1.82233209	    127.90617129	    -34.58344064	     50.83256898	     92.96178847	    101.96740208	    119.92441681	    -35.98267473	     52.27749257	     60.50770539	     92.27838424
      2.05000000	    -18.33859214	      3.45418863	      1.84545554	     -0.24117959	      0.82172929	     -0.55180889	     53.33182041	     -4.77293122	      5.34586347	     67.79263713	      1.18320473	     11.42442245	    -28.64643899	     -7.43585987	     48.98187768	     -8.06110863	      1.79010098	     58.40694936	      1.01939357	     11.77947373	    -14.69204334	     -7.43585987	     -4.24987030	      0.10447164	     -1.82216426	    133.58319714	    -32.52071855	     52.67441161	     91.27160969	    100.23860561	    127.16890690	    -34.95268529	     58.83740543	     57.94978261	     91.74517795
      2.06000000	    -17.80815075	      3.96007604	      1.89487355	     -0.23333287	      0.84123594	     -0.54955005	     50.34166202	     -5.38982263	      5.03833398	     63.76314444	      1.11287681	      8.27514466	    -28.66509527	     -7.43572633	     45.48001271	     -7.67774122	      0.97261816	     53.60988438	      0.93566899	      8.02894961	    -14.37345912	     -7.43572633	     -3.73947108	     -0.85859263	     -1.62575875	    139.01036411	    -30.88774529	     54.56892690	     88.86330976	    100.89048683	    133.63907471	    -32.81307022	     64.30192337	     54.08898458	     92.30214842
      2.07000000	    -17.11585393	      4.54423451	      1.95462384	     -0.22503417	      0.86212491	     -0.54707204	     47.01703718	     -6.19350131	      4.48499288	     59.34137420	      1.03570236	      4.85683898	    -28.25142355	     -7.43673345	     41.67487015	     -7.27501785	      0.00430918	     48.41454334	      0.84499319	      3.43915218	    -13.43268710	     -7.43673345	     -3.44781324	     -1.97542882	     -2.07971702	    143.14864909	    -28.92833407	     55.32403597	     85.76962516	    100.88737558	    140.19997184	    -30.78961641	     70.82781087	     49.76076382	     92.44618712
      2.08000000	    -16.26517418	      5.16749919	      2.00994366	     -0.21630667	      0.88439211	     -0.54456268	     43.29763563	     -7.11898356	      3.69792433	     54.37875884	      0.94908838	      0.91183870	    -27.58054287	     -7.45819409	     37.62639923	     -6.89318461	     -1.25405695	     42.87947894	      0.74838809	     -1.82150190	    -11.62391865	     -7.45819409	     -3.38071816	     -3.08208009	     -2.78100947	    146.68619536	    -26.92690281	     55.92256474	     82.42806342	     97.17208521	    146.25826067	    -28.72990943	     77.92679578	     45.80973215	     87.15023882
      2.09000000	    -15.30573256	      5.78019360	      2.09322947	     -0.20731558	      0.90800293	     -0.54205085	     39.22778347	     -8.11202940	      2.59876924	     48.84259728	      0.85246414	     -3.79847742	    -26.54623413	     -7.45843719	     33.41651624	     -6.54736337	     -2.76610864	     36.88887930	      0.64383240	     -8.06125680	     -8.93609664	     -7.45843719	     -3.43400709	     -4.09114907	     -3.34022146	    150.02744984	    -25.08451135	     56.59629226	     78.31734450	     98.67009052	    151.07604407	    -26.44440527	     83.63577099	     40.99927657	     87.65526913
      2.10000000	    -14.28256493	      6.40783272	      2.33000251	     -0.19813448	      0.93274755	     -0.53998226	     34.80850718	     -9.25894051	      1.11220062	     42.67831871	      0.74487718	     -9.19205318	    -25.02027872	     -7.45492829	     29.12154019	     -6.09384802	     -4.32609126	     30.37991837	      0.53022960	    -15.26362406	     -5.27105880	     -7.45492829	     -3.56701833	     -4.87471048	     -3.67229727	    153.46620168	    -23.10067242	     57.86312997	     73.56114379	    100.71567753	    154.26527615	    -24.57866842	     86.19629327	     36.91016542	     88.79932039
      2.11000000	    -13.41814446	      7.24526529	      2.82465058	     -0.18894580	      0.95795269	     -0.53870035	     30.37247234	    -10.79634634	     -0.76732030	     36.10097257	      0.63008083	    -14.46146396	    -21.57055257	     -7.45586434	     24.92755579	     -5.19148710	     -5.56077978	     23.16392770	      0.40428681	    -23.59042589	     -1.59615487	     -7.45586434	     -3.59790445	     -5.90807419	     -4.98914218	    155.80036356	    -21.02097640	     58.40478251	     68.91621769	    100.35123469	    158.35828304	    -22.81198917	     93.21914921	     32.40140799	     86.20469779
      2.12000000	    -12.91681778	      7.96124286	      3.38102313	     -0.17978152	      0.98312261	     -0.53763687	     26.05561175	    -12.00389898	     -2.73835901	     28.66895968	      0.50036774	    -22.61894870	    -19.16035192	     -7.44894639	     21.11506435	     -4.39193341	     -6.79286527	     15.55099897	      0.27141613	    -32.16989970	      2.60191767	     -7.44894639	     -3.18692183	     -6.64547438	     -5.83903991	    158.40039543	    -19.25049669	     60.33781635	     63.95554263	    104.08546167	    160.66064091	    -21.51955596	     95.96582532	     28.14463701	     88.15750563
      2.13000000	    -12.09354921	      8.66997009	      3.75044603	     -0.17067732	      1.00845072	     -0.53592086	     21.37121578	    -12.98512112	     -5.15962341	     20.80813312	      0.36317043	    -30.00006065	    -14.68566641	     -7.47556458	     16.92851674	     -3.68762157	     -8.31965007	      8.00116408	      0.13964666	    -40.38619271	      7.20165410	     -7.47556458	     -3.22897136	     -7.49500594	     -7.12975173	    159.99532033	    -17.69119698	     61.52571384	     59.88921838	     95.67415919	    163.14426993	    -20.15242304	    100.25276475	     26.22622366	     64.24434638
